<svg width="140" height="140" viewBox="0 0 140 140" fill="none" xmlns="http://www.w3.org/2000/svg">
<path d="M140 70C140 83.8447 135.895 97.3785 128.203 108.89C120.511 120.401 109.579 129.373 96.7878 134.672C83.997 139.97 69.9223 141.356 56.3437 138.655C42.765 135.954 30.2922 129.287 20.5025 119.497C10.7128 109.708 4.046 97.235 1.34503 83.6563C-1.35594 70.0777 0.0302985 56.003 5.32843 43.2122C10.6266 30.4213 19.5986 19.4888 31.1101 11.7971C42.6215 4.10543 56.1553 -1.65096e-07 70 0L70 13.4154C58.8086 13.4154 47.8686 16.734 38.5633 22.9516C29.258 29.1692 22.0054 38.0065 17.7226 48.346C13.4399 58.6855 12.3193 70.0628 14.5027 81.0391C16.686 92.0154 22.0751 102.098 29.9886 110.011C37.9021 117.925 47.9846 123.314 58.9609 125.497C69.9372 127.681 81.3145 126.56 91.654 122.277C101.993 117.995 110.831 110.742 117.048 101.437C123.266 92.1314 126.585 81.1914 126.585 70H140Z" fill="#2C7DFA"/>
</svg>
